<svg width="81" height="30" viewBox="0 0 81 30" fill="none" xmlns="http://www.w3.org/2000/svg">
<path d="M2.40278 24V7.2H4.99478V24H2.40278ZM3.55478 16.848V14.352H12.2188V16.848H3.55478ZM3.55478 9.696V7.2H13.2988V9.696H3.55478ZM16.6243 24V11.4H19.0963V24H16.6243ZM17.8243 8.616C17.2963 8.616 16.8883 8.48 16.6003 8.208C16.3123 7.936 16.1683 7.552 16.1683 7.056C16.1683 6.592 16.3123 6.216 16.6003 5.928C16.9043 5.64 17.3123 5.496 17.8243 5.496C18.3523 5.496 18.7603 5.632 19.0483 5.904C19.3363 6.176 19.4803 6.56 19.4803 7.056C19.4803 7.52 19.3283 7.896 19.0243 8.184C18.7363 8.472 18.3363 8.616 17.8243 8.616ZM22.896 24V11.4H25.368V13.992L24.936 14.28C25.096 13.72 25.408 13.208 25.872 12.744C26.336 12.264 26.888 11.88 27.528 11.592C28.168 11.288 28.824 11.136 29.496 11.136C30.456 11.136 31.256 11.328 31.896 11.712C32.536 12.08 33.016 12.648 33.336 13.416C33.656 14.184 33.816 15.152 33.816 16.32V24H31.344V16.488C31.344 15.768 31.248 15.176 31.056 14.712C30.864 14.232 30.568 13.888 30.168 13.68C29.768 13.456 29.272 13.36 28.68 13.392C28.2 13.392 27.76 13.472 27.36 13.632C26.96 13.776 26.608 13.984 26.304 14.256C26.016 14.528 25.784 14.848 25.608 15.216C25.448 15.568 25.368 15.952 25.368 16.368V24H24.144C23.936 24 23.728 24 23.52 24C23.312 24 23.104 24 22.896 24ZM40.2588 24V9.696H35.5548V7.2H47.6988V9.696H42.8508V24H40.2588ZM48.8413 24V11.4H51.3373V15.36L51.0973 14.4C51.2733 13.792 51.5693 13.24 51.9853 12.744C52.4173 12.248 52.9053 11.856 53.4493 11.568C54.0093 11.28 54.5853 11.136 55.1773 11.136C55.4493 11.136 55.7053 11.16 55.9453 11.208C56.2013 11.256 56.4013 11.312 56.5453 11.376L55.8973 14.064C55.7053 13.984 55.4893 13.92 55.2493 13.872C55.0253 13.808 54.8013 13.776 54.5773 13.776C54.1453 13.776 53.7293 13.864 53.3293 14.04C52.9453 14.2 52.6013 14.432 52.2973 14.736C52.0093 15.024 51.7773 15.368 51.6013 15.768C51.4253 16.152 51.3373 16.576 51.3373 17.04V24H48.8413ZM58.929 24V11.4H61.401V24H58.929ZM60.129 8.616C59.601 8.616 59.193 8.48 58.905 8.208C58.617 7.936 58.473 7.552 58.473 7.056C58.473 6.592 58.617 6.216 58.905 5.928C59.209 5.64 59.617 5.496 60.129 5.496C60.657 5.496 61.065 5.632 61.353 5.904C61.641 6.176 61.785 6.56 61.785 7.056C61.785 7.52 61.633 7.896 61.329 8.184C61.041 8.472 60.641 8.616 60.129 8.616ZM73.5767 24L69.4967 18.696L69.1367 18.24L63.8327 11.4H66.9527L70.9607 16.632L71.3687 17.16L76.6007 24H73.5767ZM63.8567 24L68.8247 17.52L70.2887 19.272L66.7847 24H63.8567ZM71.5127 17.904L70.1447 16.176L73.2407 11.4H76.1687L71.5127 17.904Z" fill="#B0E554"/>
<path d="M77.3657 24L73.2857 18.696L72.9257 18.24L67.6217 11.4H70.7417L74.7497 16.632L75.1577 17.16L80.3897 24H77.3657ZM67.6457 24L72.6137 17.52L74.0777 19.272L70.5737 24H67.6457ZM75.3017 17.904L73.9337 16.176L77.0297 11.4H79.9577L75.3017 17.904Z" fill="#B0E554"/>
</svg>
